HIERARCHY
ROOT Hips
{
	OFFSET 0.000000 0.000000 0.000000
	CHANNELS 6 Xposition Yposition Zposition Zrotation Yrotation Xrotation 
	JOINT LHipJoint
	{
		OFFSET 0.000000 0.000000 0.000000
		CHANNELS 3 Zrotation Yrotation Xrotation
		JOINT LeftUpLeg
		{
			OFFSET 1.363060 -1.794630 0.839290
			CHANNELS 3 Zrotation Yrotation Xrotation
			JOINT LeftLeg
			{
				OFFSET 2.448110 -6.726130 0.000000
				CHANNELS 3 Zrotation Yrotation Xrotation
				JOINT LeftFoot
				{
					OFFSET 2.562200 -7.039590 0.000000
					CHANNELS 3 Zrotation Yrotation Xrotation
					JOINT LeftToeBase
					{
						OFFSET 0.157640 -0.433110 2.322550
						CHANNELS 3 Zrotation Yrotation Xrotation
						End Site
						{
							OFFSET 0.000000 0.000000 0.000000
						}
					}
				}
			}
		}
	}
	JOINT RHipJoint
	{
		OFFSET 0.000000 0.000000 0.000000
		CHANNELS 3 Zrotation Yrotation Xrotation
		JOINT RightUpLeg
		{
			OFFSET -1.305520 -1.794630 0.839290
			CHANNELS 3 Zrotation Yrotation Xrotation
			JOINT RightLeg
			{
				OFFSET -2.542530 -6.985550 0.000000
				CHANNELS 3 Zrotation Yrotation Xrotation
				JOINT RightFoot
				{
					OFFSET -2.568260 -7.056230 0.000000
					CHANNELS 3 Zrotation Yrotation Xrotation
					JOINT RightToeBase
					{
						OFFSET -0.164730 -0.452590 2.363150
						CHANNELS 3 Zrotation Yrotation Xrotation
						End Site
						{
							OFFSET 0.000000 0.000000 0.000000
						}
					}
				}
			}
		}
	}
	JOINT LowerBack
	{
		OFFSET 0.000000 0.000000 0.000000
		CHANNELS 3 Zrotation Yrotation Xrotation
		JOINT Spine
		{
			OFFSET 0.028270 2.035590 -0.193380
			CHANNELS 3 Zrotation Yrotation Xrotation
			JOINT Spine1
			{
				OFFSET 0.056720 2.048850 -0.042750
				CHANNELS 3 Zrotation Yrotation Xrotation
				JOINT Neck
				{
					OFFSET 0.000000 0.000000 0.000000
					CHANNELS 3 Zrotation Yrotation Xrotation
					JOINT Neck1
					{
						OFFSET -0.054170 1.746240 0.172020
						CHANNELS 3 Zrotation Yrotation Xrotation
						JOINT Head
						{
							OFFSET 0.104070 1.761360 -0.123970
							CHANNELS 3 Zrotation Yrotation Xrotation
							End Site
							{
								OFFSET 0.000000 0.000000 0.000000
							}
						}
					}
				}
				JOINT LeftShoulder
				{
					OFFSET 0.000000 0.000000 0.000000
					CHANNELS 3 Zrotation Yrotation Xrotation
					JOINT LeftArm
					{
						OFFSET 3.362410 1.200890 -0.311210
						CHANNELS 3 Zrotation Yrotation Xrotation
						JOINT LeftForeArm
						{
							OFFSET 4.983000 -0.000000 -0.000000
							CHANNELS 3 Zrotation Yrotation Xrotation
							JOINT LeftHand
							{
								OFFSET 3.483560 -0.000000 -0.000000
								CHANNELS 3 Zrotation Yrotation Xrotation
								JOINT LeftFingerBase
								{
									OFFSET 0.000000 0.000000 0.000000
									CHANNELS 3 Zrotation Yrotation Xrotation
									JOINT LeftHandIndex1
									{
										OFFSET 0.715260 -0.000000 -0.000000
										CHANNELS 3 Zrotation Yrotation Xrotation
										End Site
										{
											OFFSET 0.000000 0.000000 0.000000
										}
									}
								}
								JOINT LThumb
								{
									OFFSET 0.000000 0.000000 0.000000
									CHANNELS 3 Zrotation Yrotation Xrotation
									End Site
									{
										OFFSET 0.000000 0.000000 0.000000
									}
								}
							}
						}
					}
				}
				JOINT RightShoulder
				{
					OFFSET 0.000000 0.000000 0.000000
					CHANNELS 3 Zrotation Yrotation Xrotation
					JOINT RightArm
					{
						OFFSET -3.136600 1.374050 -0.404650
						CHANNELS 3 Zrotation Yrotation Xrotation
						JOINT RightForeArm
						{
							OFFSET -5.241900 -0.000000 -0.000000
							CHANNELS 3 Zrotation Yrotation Xrotation
							JOINT RightHand
							{
								OFFSET -3.444170 -0.000000 -0.000000
								CHANNELS 3 Zrotation Yrotation Xrotation
								JOINT RightFingerBase
								{
									OFFSET 0.000000 0.000000 0.000000
									CHANNELS 3 Zrotation Yrotation Xrotation
									JOINT RightHandIndex1
									{
										OFFSET -0.622530 -0.000000 -0.000000
										CHANNELS 3 Zrotation Yrotation Xrotation
										End Site
										{
											OFFSET 0.000000 0.000000 0.000000
										}
									}
								}
								JOINT RThumb
								{
									OFFSET 0.000000 0.000000 0.000000
									CHANNELS 3 Zrotation Yrotation Xrotation
									End Site
									{
										OFFSET 0.000000 0.000000 0.000000
									}
								}
							}
						}
					}
				}
			}
		}
	}
}
MOTION
Frames: 4
Frame Time: 0.008333
-7.942717 17.030247 0.313441 -175.976672 85.038897 -171.619105 -11.646859 5.752917 1.534145 4.278440 8.925240 10.440958 0.573384 1.690227 22.863361 1.980427 5.261470 32.070378 2.298400 -0.000000 -63.441100 9.379698 -0.525601 1.741825 6.601292 -9.294629 -26.745118 2.103865 0.137363 13.590867 -2.229355 -10.604613 -3.611322 -1.640000 0.000000 -35.529000 4.915114 -5.085927 -5.318135 0.733352 -5.628627 -3.208270 -5.505736 -5.585027 3.069293 9.320762 -22.393199 -11.922124 -2.116347 -0.109155 -1.047099 0.000000 0.000000 0.000000 2.932636 15.433195 1.176726 -34.636497 4.434125 -0.843728 -1.141035 -65.993690 -0.007130 3.074339 -0.226266 -0.010462 -0.143747 0.200765 0.000000 0.000000 0.000000 0.000000 0.000000 0.000000 0.000000 14.984829 -19.892024 0.038458 70.814953 -22.603509 -8.488381 4.226996 29.440540 0.006452 4.323060 2.151417 0.080291 0.109189 -0.018232 -0.000000 0.000000 0.000000 0.000000 0.000000 0.000000 0.000000 
-7.686857 17.016872 0.333691 -173.191435 85.211649 -169.101487 -11.768466 5.758109 1.620261 4.780658 9.142615 9.700874 0.639779 1.703415 24.958615 2.098259 5.524699 32.777079 2.448200 0.000000 -58.622800 9.351815 -0.645955 1.416420 7.139912 -10.556315 -26.921189 2.140719 -0.135006 15.951390 -2.038992 -9.752055 -3.519986 -1.496500 -0.000001 -35.403500 5.264626 -4.894040 -5.183869 0.772971 -5.459475 -3.204302 -5.554002 -5.415149 3.012741 9.430556 -22.268572 -11.961230 -2.140671 -0.111369 -1.059122 0.000000 0.000000 0.000000 2.691984 15.459961 1.194875 -35.171669 5.436576 -0.907905 -1.218257 -64.706789 -0.009279 3.786043 0.077250 -0.002128 -0.156361 0.184862 0.000000 0.000000 0.000000 0.000000 0.000000 0.000000 0.000000 15.142167 -19.639592 0.061711 70.208605 -21.564031 -8.240796 4.213679 29.076187 0.006791 3.983147 2.251690 0.077305 0.110889 -0.020563 -0.000000 0.000000 0.000000 0.000000 0.000000 0.000000 0.000000 
-7.436864 17.001660 0.353266 -170.492661 85.411748 -166.664890 -11.892663 5.743747 1.654680 5.234028 9.493245 8.850515 0.682634 1.728592 27.154072 2.191535 5.953930 32.887452 2.676200 0.000000 -53.887800 9.319666 -0.759447 1.105069 7.586981 -11.780356 -27.032771 2.168701 -0.378604 18.139065 -1.849205 -8.857032 -3.539465 -1.329600 0.000000 -34.973100 5.571905 -4.696415 -4.996226 0.798949 -5.279123 -3.190399 -5.612352 -5.234312 2.953122 9.558940 -22.077007 -12.001999 -2.169021 -0.113797 -1.072213 0.000000 0.000000 0.000000 2.455452 15.490784 1.210030 -35.778577 6.450159 -0.934456 -1.302465 -63.269786 -0.011658 4.648458 0.418122 0.012098 -0.169677 0.167892 0.000000 0.000000 0.000000 0.000000 0.000000 0.000000 0.000000 15.311447 -19.327175 0.096640 69.652226 -20.361478 -8.107929 4.203048 28.542734 0.007142 3.597494 2.363136 0.073118 0.112851 -0.023222 -0.000000 0.000000 0.000000 0.000000 0.000000 0.000000 0.000000 
-7.192946 16.985116 0.372570 -167.977959 85.630929 -164.409768 -12.012099 5.707257 1.631363 5.618155 9.961801 7.910264 0.709126 1.771892 29.423890 2.261318 6.589729 32.382922 2.996600 0.000000 -49.551200 9.287107 -0.862965 0.817371 7.915464 -12.901676 -27.041034 2.187259 -0.590160 20.130426 -1.670328 -7.955910 -3.712930 -1.144300 0.000001 -34.295300 5.824074 -4.498377 -4.755434 0.810040 -5.091850 -3.166140 -5.678219 -5.047036 2.891375 9.694415 -21.809605 -12.038618 -2.202505 -0.116598 -1.084836 0.000000 0.000000 0.000000 2.227978 15.532300 1.222465 -36.455068 7.455256 -0.916580 -1.393511 -61.691401 -0.013951 5.619917 0.771228 0.033112 -0.182765 0.150129 -0.000000 0.000000 0.000000 0.000000 0.000000 0.000000 0.000000 15.484799 -18.948205 0.139630 69.158360 -19.013979 -8.107886 4.193875 27.856259 0.007477 3.168438 2.479052 0.067329 0.115010 -0.026215 -0.000000 0.000000 0.000000 0.000000 0.000000 0.000000 0.000000 
